<?xml version="1.0" standalone="no"?>
<!DOCTYPE svg PUBLIC "-//W3C//DTD SVG 20010904//EN"
 "http://www.w3.org/TR/2001/REC-SVG-20010904/DTD/svg10.dtd">
<svg version="1.0" xmlns="http://www.w3.org/2000/svg"
 width="300.000000pt" height="300.000000pt" viewBox="0 0 300.000000 300.000000"
 preserveAspectRatio="xMidYMid meet">
<metadata>
Created by potrace 1.16, written by Peter Selinger 2001-2019
</metadata>
<g transform="translate(0.000000,300.000000) scale(0.100000,-0.100000)"
fill="#000000" stroke="none">
<path d="M107 2893 c-11 -10 -8 -53 3 -53 7 0 7 -6 0 -19 -13 -25 -13 -51 1
-51 5 0 8 4 5 8 -2 4 11 6 31 4 27 -3 34 -1 31 9 -3 8 -14 13 -26 11 -11 -2
-24 2 -28 9 -4 8 -3 9 4 5 26 -16 32 7 8 29 -18 17 -21 26 -13 34 14 14 30 14
21 0 -9 -15 16 -30 39 -23 22 7 22 -5 0 -22 -17 -13 -17 -15 -1 -27 13 -11 15
-16 6 -25 -15 -15 -4 -26 38 -40 23 -7 35 -7 44 1 10 9 11 9 8 -3 -7 -19 -78
-15 -94 6 -6 7 -26 14 -44 14 -25 0 -31 -3 -26 -16 3 -8 2 -12 -3 -9 -6 3 -8
-7 -6 -22 2 -16 4 -38 4 -50 1 -19 7 -23 30 -23 17 0 32 -4 35 -8 3 -5 -14 -8
-37 -6 -23 1 -33 0 -22 -3 34 -9 47 -24 34 -39 -8 -10 -8 -14 -1 -14 6 0 14 5
17 10 4 7 14 5 28 -5 29 -21 33 -19 50 15 17 33 7 46 -22 30 -24 -12 -42 -13
-22 -1 12 8 11 13 -10 30 -13 11 -19 20 -12 21 6 0 18 -7 27 -15 8 -8 30 -15
48 -15 25 0 29 -3 18 -10 -8 -5 -11 -10 -6 -10 6 0 5 -5 -2 -12 -15 -15 -16
-48 -2 -48 19 0 10 -15 -15 -27 -15 -6 -22 -7 -19 -1 4 6 0 14 -7 19 -17 11
-62 12 -56 2 3 -5 -6 -9 -20 -10 -14 0 -29 -5 -34 -10 -12 -12 0 -50 18 -58
22 -8 28 2 13 20 -11 13 -10 14 4 9 10 -4 16 -1 16 7 0 11 2 11 10 -1 5 -9 5
-19 -1 -27 -6 -7 -7 -18 -3 -24 5 -9 1 -10 -14 -7 -33 9 -26 -8 10 -26 39 -20
62 -21 55 -1 -5 12 2 13 38 10 36 -4 45 -2 45 11 0 14 2 13 17 -1 15 -15 18
-15 40 12 13 15 35 40 49 56 24 25 24 27 6 27 -21 0 -45 -22 -40 -36 3 -9 -5
-14 -23 -14 -6 0 -3 7 5 16 20 20 21 38 1 30 -19 -7 -19 1 0 20 8 9 15 12 15
7 0 -5 14 -10 30 -11 33 -3 43 23 13 31 -14 4 -13 5 4 6 12 0 24 -5 26 -11 4
-10 6 -10 6 -1 1 7 8 10 17 6 12 -4 15 -2 12 8 -2 8 -14 15 -26 17 -11 2 -26
10 -32 18 -11 12 -6 14 26 14 30 0 36 -3 24 -11 -12 -8 -9 -10 12 -6 16 2 25
0 21 -5 -11 -19 32 11 56 37 16 20 20 30 11 35 -8 5 -7 9 5 14 24 9 32 7 15
-4 -11 -7 -11 -10 -2 -10 25 0 51 20 46 35 -4 8 -2 15 4 15 6 0 12 -5 14 -10
5 -16 68 47 67 67 0 10 -3 13 -6 6 -2 -7 -10 -13 -16 -13 -8 0 -7 4 1 12 18
18 14 28 -11 28 -27 0 -32 -26 -11 -50 11 -13 10 -18 -6 -28 -11 -7 -20 -8
-20 -3 0 14 -41 21 -61 11 -12 -7 -19 -6 -22 3 -4 9 -8 9 -15 -2 -6 -8 -18
-11 -30 -7 -14 5 -27 1 -40 -12 -21 -21 -34 -18 -47 13 -11 26 -14 115 -3 115
4 0 8 -7 8 -15 0 -8 6 -15 13 -15 8 0 9 -3 1 -8 -14 -9 -27 -62 -15 -62 5 0
11 9 13 20 3 20 4 20 40 -5 l38 -25 22 22 c21 21 23 21 26 5 2 -12 9 -16 19
-13 8 3 17 6 19 6 2 0 4 7 4 16 0 8 5 12 11 9 6 -4 8 -13 5 -20 -2 -7 2 -16
10 -19 24 -9 29 -7 16 6 -7 7 -12 24 -12 39 0 22 6 30 35 39 29 10 38 9 51 -4
14 -15 14 -16 -1 -16 -12 0 -15 -5 -11 -16 3 -9 6 -18 6 -20 0 -2 9 -4 21 -4
13 0 18 4 13 12 -5 7 -2 9 7 6 8 -3 23 0 34 8 17 12 17 14 2 14 -29 0 -32 1
-41 17 -5 9 -4 19 3 26 18 18 13 27 -14 27 -14 0 -25 -4 -25 -10 0 -5 -7 -10
-15 -10 -8 0 -15 5 -15 10 0 16 -18 12 -40 -10 -12 -12 -22 -15 -26 -9 -3 6
-13 8 -21 5 -11 -4 -13 -2 -9 9 4 11 -2 15 -23 15 -16 0 -32 -6 -34 -12 -4
-10 -8 -9 -16 2 -10 13 -12 13 -21 0 -18 -27 -12 -41 15 -34 15 4 25 2 25 -4
0 -6 8 -13 18 -15 9 -3 -6 -5 -35 -6 l-52 -1 9 30 c9 32 -3 41 -18 15 -7 -14
-11 -13 -27 5 -23 26 -45 26 -45 0 0 -11 -4 -20 -10 -20 -5 0 -10 6 -10 13 0
16 -1 16 -105 21 -44 2 -88 -1 -97 -6 -12 -5 -18 -5 -18 2 0 11 -43 14 -53 3z"/>
<path d="M2256 2891 c-8 -13 36 -47 67 -50 15 -1 35 3 43 9 11 10 14 10 14 0
0 -8 9 -11 25 -8 14 3 28 1 32 -5 3 -6 -9 -8 -33 -5 -24 3 -52 -1 -71 -10 -32
-15 -44 -32 -23 -32 6 0 10 5 10 11 0 8 6 7 17 -2 15 -12 16 -12 9 6 -5 15 -4
17 5 8 14 -14 4 -33 -19 -33 -15 0 -15 -2 -2 -10 13 -8 12 -10 -5 -11 -11 -1
-24 -1 -30 0 -5 1 1 -8 15 -19 24 -19 36 -24 53 -21 5 1 6 -3 2 -8 -3 -6 6
-13 20 -17 13 -3 23 -10 20 -14 -3 -5 4 -11 15 -15 11 -3 20 -11 20 -16 0 -5
5 -9 10 -9 6 0 3 11 -6 25 -16 25 -12 45 9 45 7 0 6 -4 -3 -10 -12 -8 -13 -10
-1 -10 8 0 23 -7 33 -17 17 -15 18 -15 18 1 0 32 43 15 61 -24 17 -34 17 -35
-7 -48 -27 -14 -33 -42 -9 -42 8 0 15 8 15 18 0 11 3 13 8 5 4 -7 24 -13 44
-15 29 -1 35 -5 27 -15 -8 -9 -17 -10 -29 -3 -31 17 -32 11 -4 -15 28 -26 39
-30 47 -17 2 4 2 1 0 -7 -2 -9 3 -12 18 -8 11 3 18 3 15 0 -3 -3 2 -12 12 -19
21 -15 13 -24 -24 -27 -23 -2 -30 3 -32 21 -2 12 -10 22 -18 22 -8 0 -14 4
-14 10 0 5 -9 14 -20 20 -30 16 -24 0 16 -44 19 -21 42 -49 50 -61 15 -24 15
-24 35 -4 17 17 30 19 82 16 34 -3 63 -10 65 -16 2 -7 -7 -9 -29 -4 -27 5 -31
4 -26 -10 4 -10 2 -17 -3 -17 -6 0 -10 9 -10 20 0 26 -40 27 -63 2 -22 -24
-22 -42 0 -42 9 0 14 -3 10 -6 -10 -11 23 -65 35 -58 7 5 8 3 4 -5 -5 -7 -2
-20 6 -29 8 -9 23 -34 33 -55 15 -28 25 -37 38 -33 10 2 20 -1 23 -9 3 -7 16
-12 30 -12 23 0 24 3 24 58 l0 59 -52 -1 c-78 -2 -100 0 -93 10 3 5 20 7 39 4
29 -4 34 -2 39 18 l7 24 15 -22 c31 -44 45 -29 45 47 0 39 -3 70 -7 70 -4 0
-17 -10 -30 -22 -13 -12 -23 -16 -23 -9 0 6 13 20 30 29 27 16 30 22 30 70 0
48 -2 53 -19 47 -11 -3 -22 -1 -26 5 -4 6 4 10 19 10 19 0 26 5 26 20 0 23
-18 27 -26 5 -4 -8 -10 -12 -16 -9 -5 3 0 17 13 30 20 21 20 24 5 24 -10 0
-26 -10 -37 -22 -16 -20 -20 -21 -28 -8 -8 11 -6 17 7 22 12 6 10 7 -8 5 -16
-1 -24 -7 -22 -18 1 -9 -4 -16 -12 -16 -8 0 -11 8 -8 20 3 14 1 18 -6 13 -18
-11 -14 3 7 25 11 12 24 18 30 14 6 -3 11 -1 11 4 0 6 -6 11 -14 11 -8 0 -18
4 -21 10 -8 14 26 1 48 -18 15 -14 17 -13 17 1 0 20 30 23 48 5 9 -9 12 -3 12
27 0 22 -4 46 -9 54 -6 9 -5 24 0 39 6 16 6 29 -1 36 -6 9 -6 16 3 25 9 10 8
15 -7 27 -24 17 -50 18 -78 3 -15 -8 -19 -8 -14 0 4 6 3 11 -3 11 -19 0 -21
-19 -4 -40 19 -22 39 -28 27 -7 -6 9 -5 9 7 0 13 -11 19 -13 37 -13 5 0 9 -6
9 -14 0 -8 -6 -12 -14 -9 -19 7 -16 -7 5 -24 16 -14 16 -14 0 -9 -20 6 -25
-10 -5 -17 7 -3 3 -6 -8 -7 -28 -3 -27 -3 -54 5 -20 6 -23 4 -18 -9 4 -9 5
-16 3 -16 -10 0 -79 39 -69 40 6 0 14 8 16 18 4 13 5 11 6 -5 1 -27 13 -29 32
-7 7 9 24 20 37 25 l24 9 -28 23 c-16 12 -32 21 -36 19 -5 -1 -8 5 -8 13 0 9
-6 15 -12 14 -7 -1 -30 1 -51 5 -24 6 -42 4 -51 -3 -11 -9 -15 -9 -18 0 -2 7
-10 9 -17 5 -9 -6 -7 -14 10 -32 23 -25 71 -30 97 -11 8 6 12 5 12 -3 0 -8 9
-11 25 -8 14 3 28 1 31 -4 4 -6 -11 -9 -37 -6 -43 3 -43 3 -45 -32 -1 -19 3
-41 8 -47 7 -9 7 -13 -1 -13 -6 0 -11 5 -11 11 0 6 -16 8 -40 6 -22 -2 -40 0
-40 5 0 4 -5 8 -11 8 -6 0 -8 -7 -5 -16 5 -14 4 -15 -9 -4 -8 7 -21 10 -29 7
-17 -7 -25 10 -18 36 6 23 22 22 22 -3 0 -11 4 -20 10 -20 5 0 15 9 22 20 16
25 28 26 28 3 0 -13 4 -11 13 7 9 17 10 26 3 29 -6 2 -19 10 -28 18 -9 8 -22
12 -29 7 -9 -5 -7 -10 7 -15 15 -6 12 -8 -13 -8 -32 -1 -51 13 -34 23 5 4 11
0 13 -6 3 -8 9 -4 17 10 7 13 9 27 5 30 -4 4 -9 1 -11 -5 -4 -10 -10 -9 -26 2
-26 18 -68 19 -86 3 -11 -10 -13 -10 -7 0 9 15 -10 16 -19 1 -10 -14 24 -49
47 -49 11 0 22 9 25 20 3 11 9 20 14 20 13 0 11 -14 -3 -28 -7 -7 -8 -12 -2
-12 6 0 11 -6 11 -14 0 -8 -6 -12 -14 -9 -19 8 -16 -14 5 -27 16 -11 16 -11 0
-6 -20 6 -25 -10 -5 -17 7 -3 3 -6 -8 -7 -28 -3 -27 -3 -54 5 -20 6 -23 4 -18
-9 8 -19 -4 -21 -21 -4 -10 10 -17 10 -32 0 -24 -15 -30 -15 -30 -1 0 5 5 7
12 3 8 -5 9 -2 5 9 -3 10 -2 17 3 17 5 0 11 8 13 18 4 13 5 11 6 -5 1 -27 13
-29 32 -7 7 9 24 20 37 25 l24 9 -28 23 c-16 12 -32 21 -36 20 -5 -2 -8 4 -8
13 0 10 -6 14 -14 11 -8 -3 -28 -1 -45 6 -24 9 -36 9 -51 -1 -12 -7 -20 -8
-20 -2 0 12 -17 13 -24 1z"/>
<path d="M1353 2819 c-465 -54 -877 -383 -1036 -825 -58 -160 -84 -370 -67
-538 30 -308 151 -567 365 -781 491 -493 1289 -493 1780 0 242 244 368 549
367 890 0 352 -121 645 -367 890 -277 278 -653 409 -1042 364z m-193 -1214 l0
-495 -80 0 -80 0 0 42 c0 41 0 42 -15 20 -9 -12 -37 -34 -63 -49 -43 -26 -56
-28 -147 -28 -89 0 -105 3 -150 27 -99 52 -158 147 -177 281 -11 84 2 196 31
263 28 62 93 128 154 155 103 46 262 23 328 -47 12 -13 25 -24 28 -24 3 0 5
72 3 161 -2 88 -1 167 2 175 4 10 26 14 86 14 l80 0 0 -495z m566 459 c105
-53 162 -163 151 -290 -10 -125 -77 -209 -274 -342 -112 -76 -193 -148 -193
-172 0 -6 85 -10 235 -10 l235 0 0 -70 0 -70 -336 0 -337 0 7 53 c10 73 56
167 113 228 26 28 98 86 158 128 190 131 229 179 229 281 0 103 -54 160 -152
160 -74 0 -109 -21 -138 -83 -13 -29 -24 -62 -24 -73 0 -12 -3 -36 -6 -53 l-6
-31 -81 0 -80 0 6 59 c11 99 42 169 106 231 73 72 125 91 243 87 73 -3 96 -8
144 -33z m364 -139 c0 -96 3 -175 8 -175 4 0 12 8 18 18 6 9 35 31 65 47 48
27 63 30 134 29 88 0 138 -19 187 -71 55 -58 58 -78 58 -383 l0 -280 -79 0
-80 0 -3 258 c-3 238 -5 260 -23 292 -52 89 -200 72 -259 -30 -19 -32 -21 -54
-24 -277 l-3 -243 -80 0 -79 0 0 495 0 495 80 0 80 0 0 -175z"/>
<path d="M743 1709 c-18 -5 -48 -25 -68 -44 -82 -83 -89 -287 -12 -380 55 -67
142 -84 224 -44 146 71 149 386 5 455 -44 21 -106 26 -149 13z"/>
<path d="M304 2415 c-4 -8 -14 -15 -23 -15 -14 0 -14 2 -1 11 16 12 0 9 -72
-9 -31 -8 -38 -7 -38 4 0 8 -5 14 -11 14 -5 0 -7 -4 -4 -10 4 -6 -7 -10 -24
-10 -38 0 -41 -17 -3 -22 l27 -4 -28 -12 c-23 -10 -27 -16 -21 -35 7 -21 21
-37 37 -37 10 0 9 18 -3 25 -5 3 -10 11 -10 17 0 7 6 6 15 -2 12 -10 15 -9 16
6 1 11 1 23 0 27 -1 5 3 6 8 3 6 -4 6 -18 0 -38 -7 -24 -5 -38 7 -56 16 -25
16 -25 -7 -8 -31 22 -46 20 -26 -2 10 -10 15 -21 12 -24 -3 -3 7 -5 22 -6 39
-1 60 41 29 57 -19 10 -19 10 4 5 21 -4 31 2 53 32 14 21 25 39 24 41 -7 6
-46 -10 -41 -18 3 -5 0 -17 -6 -26 -9 -15 -10 -14 -4 6 4 15 2 21 -4 17 -6 -3
-8 1 -6 11 3 12 16 18 35 19 35 1 93 54 59 54 -6 0 -13 -7 -16 -15z"/>
<path d="M256 1190 c11 -61 60 -192 102 -275 181 -354 492 -591 897 -682 61
-13 123 -17 255 -17 155 0 187 3 280 26 229 57 380 133 556 281 163 136 310
356 382 572 35 106 34 133 -3 40 -19 -49 -51 -121 -71 -160 -186 -356 -535
-612 -928 -680 -114 -19 -328 -19 -442 0 -452 78 -825 388 -995 829 -22 56
-37 85 -33 66z"/>
<path d="M2894 1018 c-5 -18 -9 -37 -9 -43 0 -5 -6 -16 -13 -23 -7 -8 -10 -18
-7 -23 4 -5 0 -9 -7 -10 -7 0 -4 -4 7 -9 14 -6 15 -9 5 -10 -12 0 -12 -3 3
-14 16 -12 16 -15 2 -29 -13 -14 -13 -16 3 -20 13 -4 12 -5 -5 -6 -12 0 -26
-9 -32 -18 -14 -25 -25 -9 -11 16 6 12 7 21 3 21 -10 0 -49 -71 -45 -82 1 -5
3 -20 4 -33 3 -36 23 -30 26 7 3 39 22 54 39 31 7 -9 10 -19 7 -22 -3 -3 -9 0
-13 7 -5 9 -11 5 -19 -13 -11 -24 -11 -25 15 -19 18 5 24 4 19 -5 -5 -7 2 -11
18 -11 24 0 24 0 25 101 1 85 -2 104 -17 116 -16 14 -16 14 1 9 15 -5 17 2 17
54 0 33 -2 60 -4 60 -3 0 -8 -15 -12 -32z"/>
<path d="M2733 694 c-11 -16 -18 -35 -15 -43 3 -8 0 -11 -7 -7 -6 4 -16 -4
-23 -21 -7 -15 -17 -31 -23 -35 -5 -4 9 -6 32 -5 27 1 39 5 36 13 -2 7 1 15 6
19 6 3 9 10 7 14 -3 4 4 12 14 19 14 9 19 8 24 -3 3 -9 -1 -15 -9 -15 -19 0
-19 -15 0 -34 8 -8 15 -19 15 -25 0 -6 7 -11 15 -11 8 0 15 9 15 19 0 27 27
34 40 11 8 -15 6 -19 -13 -22 -12 -2 -22 -10 -23 -18 0 -8 -4 -23 -8 -33 -8
-17 -9 -17 -22 0 -12 17 -13 17 -14 1 0 -10 -10 -22 -22 -28 -21 -10 -22 -10
-5 4 20 16 16 56 -6 56 -7 0 -3 7 7 15 11 8 17 18 13 21 -4 4 -12 2 -19 -3 -7
-6 -31 -11 -52 -11 -21 -1 -41 -3 -43 -6 -2 -2 -5 -20 -6 -40 -1 -20 -3 -36
-4 -36 -1 0 -9 8 -18 17 -16 16 -18 15 -36 -8 -22 -28 -25 -46 -5 -30 9 7 17
8 20 3 3 -6 -2 -13 -11 -16 -14 -6 -15 -9 -4 -15 7 -5 12 -10 12 -12 0 -2 2
-14 5 -26 9 -31 34 -29 34 2 0 19 5 25 23 25 18 0 19 -2 7 -10 -12 -8 -12 -10
5 -10 18 -1 18 -2 -2 -10 -34 -14 -28 -30 10 -25 25 4 28 3 12 -4 -17 -8 -15
-10 15 -11 19 -1 28 -4 20 -7 -8 -3 -23 -14 -34 -25 -20 -18 -20 -18 2 -18 12
0 22 -5 22 -12 0 -6 -3 -8 -7 -5 -3 4 -13 1 -21 -6 -13 -9 -14 -9 -8 1 4 6 2
12 -4 12 -6 0 -13 -7 -16 -15 -8 -19 -24 -20 -24 -1 0 8 -6 17 -12 20 -7 2 -2
4 12 3 19 -2 24 2 22 17 -2 10 1 15 7 12 5 -4 12 -2 15 3 12 18 -28 22 -42 4
-8 -12 -15 -14 -20 -7 -4 6 -14 14 -22 17 -9 3 -2 6 15 7 28 1 29 2 7 10 -23
10 -52 4 -52 -11 0 -5 -9 -9 -19 -9 -11 0 -21 -6 -23 -12 -3 -9 -9 -8 -22 5
-22 21 -35 22 -43 1 -5 -13 -8 -13 -15 -2 -7 10 -11 10 -14 1 -3 -7 -11 -10
-18 -7 -8 3 -23 -7 -34 -21 -11 -14 -23 -25 -26 -23 -2 2 -25 -10 -51 -26 -33
-21 -45 -35 -42 -47 3 -12 0 -16 -9 -12 -8 3 -11 10 -7 16 3 6 1 7 -5 3 -18
-11 4 -46 28 -46 16 0 20 7 20 34 0 25 5 35 20 39 11 3 20 1 20 -4 0 -5 -6 -9
-12 -10 -7 0 -4 -4 7 -9 20 -8 19 -9 -1 -9 -16 -1 -23 -9 -28 -33 -3 -17 -4
-33 -1 -36 3 -3 5 -1 5 5 0 6 10 9 23 6 20 -4 21 -3 5 10 -22 18 -23 27 -2 27
8 0 12 -5 9 -10 -13 -21 39 -9 60 14 21 23 21 25 4 29 -11 3 -19 10 -19 16 0
15 37 14 43 -1 4 -10 8 -10 15 0 6 10 8 1 6 -27 -2 -31 1 -41 13 -41 10 0 13
6 8 18 -5 13 -3 14 5 6 9 -9 8 -17 -1 -32 -12 -19 -14 -19 -26 -4 -12 16 -12
16 -13 0 0 -10 -10 -22 -22 -28 -22 -10 -22 -10 -4 4 10 8 15 19 11 25 -3 6
-1 11 4 11 6 0 11 7 11 15 0 21 -18 19 -32 -5 -7 -11 -18 -20 -25 -20 -7 0
-13 -4 -13 -10 0 -5 -7 -10 -16 -10 -14 0 -15 -2 -3 -17 12 -15 12 -16 -3 -11
-14 6 -28 -8 -28 -28 0 -2 36 -4 80 -4 73 0 80 2 80 20 0 11 5 20 11 20 6 0 8
9 4 20 -5 15 -3 18 9 14 9 -3 16 -2 16 4 0 6 -6 12 -12 15 -8 2 -9 8 -4 13 5
5 11 4 13 -3 7 -19 40 -16 55 5 7 11 20 22 28 25 8 4 1 4 -17 1 -17 -3 -34 0
-38 5 -3 7 0 8 9 5 11 -4 16 0 17 12 2 18 3 30 7 77 1 10 7 15 12 12 7 -4 6
-13 -1 -27 -10 -18 -9 -20 5 -15 8 3 18 2 21 -3 4 -6 -1 -10 -9 -10 -9 0 -16
-4 -16 -10 0 -5 5 -10 11 -10 5 0 7 -5 4 -10 -3 -6 -2 -10 3 -10 5 0 12 -9 15
-19 3 -13 1 -18 -9 -14 -7 2 -21 -5 -31 -16 -9 -12 -21 -21 -26 -21 -9 0 -37
-25 -37 -34 0 -2 6 -6 13 -9 6 -2 4 -3 -5 -2 -19 3 -42 -18 -31 -28 3 -4 24
-7 45 -7 30 0 37 4 36 17 -1 10 0 29 1 43 1 20 3 22 11 10 6 -9 6 -18 0 -24
-15 -15 -12 -30 3 -17 8 6 17 8 20 4 4 -3 -1 -12 -11 -19 -15 -12 -14 -13 16
-14 21 0 32 5 32 14 0 7 7 19 15 26 8 7 12 16 9 21 -3 5 3 9 13 9 17 1 17 1 1
14 -22 16 -23 26 -2 26 8 0 12 -4 9 -10 -13 -21 43 -9 58 12 16 23 16 23 22 3
4 -12 16 -22 29 -23 19 -1 23 4 24 30 1 38 22 54 40 30 11 -15 10 -18 -10 -22
-13 -3 -23 -12 -24 -20 0 -8 -4 -23 -8 -33 -7 -15 -11 -16 -18 -5 -8 10 -11
10 -15 0 -2 -7 -14 -17 -26 -23 -21 -10 -21 -9 -3 5 10 9 16 22 13 31 -7 17
-27 21 -27 5 0 -5 -7 -10 -15 -10 -8 0 -15 -4 -15 -10 0 -5 -7 -10 -16 -10
-14 0 -15 -2 -3 -17 12 -14 12 -15 0 -9 -8 5 -17 3 -22 -5 -15 -25 -10 -29 37
-29 25 0 43 4 40 8 -2 4 4 13 15 20 11 7 19 8 19 2 0 -5 -4 -10 -10 -10 -5 0
-10 -4 -10 -10 0 -5 12 -10 28 -10 29 0 56 38 46 65 -4 10 1 12 18 9 21 -5 22
-4 6 9 -22 18 -23 27 -2 27 8 0 12 -4 9 -10 -4 -6 5 -10 19 -10 31 0 35 26 9
46 -17 13 -17 14 0 8 15 -5 17 1 17 55 0 64 -14 79 -37 42 -10 -16 -9 -20 5
-24 13 -4 11 -5 -5 -6 -12 0 -26 -9 -32 -18 -5 -10 -13 -14 -17 -10 -5 4 -3
17 4 28 7 11 10 24 7 29 -3 6 0 7 8 4 8 -3 18 -1 21 4 10 17 -38 23 -50 6 -9
-12 -13 -12 -17 -2 -4 10 -7 10 -15 -1 -8 -11 -11 -9 -17 8 -3 11 -11 21 -16
21 -6 0 -7 5 -4 10 9 15 25 12 25 -6 0 -8 4 -12 10 -9 15 9 -13 46 -31 42 -15
-4 -18 9 -9 33 1 3 2 7 2 11 0 3 8 10 19 17 10 7 19 8 19 3 0 -5 -6 -12 -12
-15 -10 -5 -10 -7 -1 -12 7 -3 9 -12 6 -20 -3 -8 0 -14 6 -14 6 0 11 -7 11
-15 0 -8 7 -15 15 -15 9 0 15 9 15 24 0 31 26 41 40 16 6 -12 7 -20 1 -20 -5
0 -11 5 -13 11 -2 6 -9 0 -16 -15 -11 -25 -11 -25 21 -20 24 4 28 3 17 -5 -12
-9 -10 -11 12 -11 l26 0 1 101 c1 86 -2 104 -17 115 -16 13 -16 14 1 8 15 -5
17 1 17 55 0 62 -9 74 -36 47 -17 -18 -18 -23 -1 -29 6 -2 4 -3 -6 -1 -13 2
-17 -2 -13 -12 3 -8 2 -13 -3 -9 -5 3 -11 -1 -14 -7 -2 -7 -8 -9 -13 -5 -4 4
-3 17 4 27 6 11 9 27 6 37 -5 14 -4 15 4 4 6 -8 15 -10 23 -6 9 6 6 11 -12 17
-17 7 -26 5 -35 -7 -9 -13 -13 -13 -18 -3 -5 10 -7 10 -12 -1 -5 -11 -10 -9
-19 9 l-12 22 -20 -28z"/>
<path d="M252 520 c5 -23 -21 -47 -48 -44 -13 1 -24 -3 -24 -9 0 -8 -4 -7 -12
1 -17 17 -48 15 -48 -4 0 -11 6 -15 18 -12 11 3 23 -2 30 -13 9 -15 8 -19 -10
-24 -12 -5 -24 -2 -29 6 -10 16 -14 12 -23 -23 -4 -19 -2 -28 6 -28 9 0 9 -3
0 -12 -17 -17 -15 -44 5 -68 13 -14 20 -17 30 -8 9 7 13 7 13 -1 0 -6 -4 -11
-10 -11 -5 0 -10 -5 -10 -11 0 -6 6 -9 14 -6 8 3 20 -2 28 -11 12 -15 11 -16
-4 -3 -12 9 -18 10 -18 2 0 -17 -21 -13 -36 6 -12 17 -13 16 -14 -4 0 -12 -3
-29 -7 -39 -5 -12 -3 -15 6 -9 10 6 11 3 2 -13 -6 -11 -11 -31 -11 -43 0 -21
0 -21 26 4 15 15 30 24 35 21 18 -10 9 13 -12 32 -19 17 -19 19 -2 25 25 9 35
1 28 -22 -4 -11 -2 -19 6 -19 9 0 9 -3 -1 -15 -7 -8 -9 -24 -5 -37 6 -19 5
-21 -6 -10 -19 17 -49 15 -49 -4 0 -11 6 -15 20 -11 11 3 20 2 20 -2 0 -4 36
-7 80 -7 44 1 80 3 80 6 0 12 -39 29 -45 20 -3 -6 -13 -10 -22 -10 -11 0 -8 6
11 21 14 11 24 25 21 30 -4 5 -1 9 4 9 6 0 11 4 11 9 0 5 -11 8 -25 7 -17 -1
-24 -6 -23 -16 4 -20 -22 -50 -45 -50 -10 0 -15 5 -12 11 4 6 13 8 20 5 8 -3
13 4 13 19 0 13 -6 22 -12 21 -6 -2 -8 -1 -3 1 4 3 7 12 7 20 0 10 -6 13 -17
9 -13 -4 -12 -1 5 13 12 11 22 27 23 38 0 14 2 15 6 3 3 -8 12 -19 20 -23 7
-5 11 -12 8 -18 -4 -5 5 -13 19 -19 14 -5 26 -14 26 -20 0 -5 8 -10 18 -10 13
0 14 -2 3 -9 -11 -7 -11 -9 0 -14 10 -4 10 -6 2 -6 -7 -1 -13 -8 -13 -17 0
-12 7 -15 25 -12 17 4 25 1 25 -8 0 -9 12 -14 35 -14 31 0 35 3 35 25 0 14 3
24 8 24 25 -4 40 4 45 22 5 20 7 20 22 5 18 -18 13 -52 -6 -40 -12 7 -59 -15
-59 -28 0 -4 32 -8 71 -8 63 0 70 2 65 18 -6 16 -5 16 8 -1 21 -27 44 -22 38
8 -2 14 0 25 7 25 6 0 10 -10 8 -22 -2 -19 4 -24 31 -26 23 -2 32 1 32 12 0 8
4 17 9 20 5 4 7 -3 4 -14 -4 -16 0 -20 22 -20 23 0 26 2 15 15 -9 11 -9 15 -1
15 6 0 14 -7 17 -15 4 -9 18 -15 38 -14 28 0 29 1 9 9 -28 11 -29 26 -3 42 11
7 20 18 20 25 0 16 -23 22 -37 8 -15 -16 -58 -12 -58 5 0 7 6 15 14 18 8 3 11
0 7 -7 -5 -7 1 -11 13 -11 32 0 25 18 -17 39 l-37 19 1 -44 c1 -24 -2 -41 -7
-38 -5 3 -9 -2 -9 -10 0 -10 -9 -16 -24 -16 -19 0 -23 4 -19 20 3 11 10 23 16
27 6 3 7 1 3 -5 -4 -7 -1 -12 8 -12 12 0 16 11 16 45 0 40 -4 47 -32 65 -17
10 -35 17 -40 14 -4 -3 -8 2 -8 10 0 15 -12 21 -33 17 -5 -1 -6 3 -3 8 4 5
-12 20 -34 34 -22 13 -37 27 -33 30 3 4 2 7 -3 7 -6 0 -20 9 -33 21 -12 12
-25 18 -28 15 -4 -3 4 -15 17 -26 23 -20 23 -21 4 -35 -10 -8 -22 -15 -26 -15
-5 0 -11 0 -15 0 -4 0 -8 6 -9 14 -1 10 5 13 24 10 22 -4 24 -3 12 10 -7 9
-16 14 -20 11 -5 -3 -6 4 -3 15 4 14 0 20 -11 20 -11 0 -14 -4 -10 -12 5 -8 1
-7 -10 2 -16 13 -20 12 -32 -5 -19 -25 -18 -30 9 -43 l22 -11 -22 0 c-13 -1
-23 -6 -23 -13 0 -6 -3 -8 -7 -4 -4 4 -6 22 -5 41 2 21 -2 35 -9 35 -6 0 -8 7
-5 16 4 10 1 14 -6 12 -7 -3 -21 4 -32 14 -22 20 -36 23 -36 8 0 -5 -7 -10
-16 -10 -12 0 -9 6 10 21 14 11 24 25 21 30 -4 5 -1 9 4 9 6 0 11 4 11 9 0 5
-11 8 -25 7 -17 -1 -24 -6 -23 -16z m48 -87 c0 -11 -8 -13 -30 -8 -19 4 -30 3
-30 -4 0 -6 7 -11 15 -11 10 0 15 -7 13 -17 -2 -12 4 -18 20 -19 16 -1 21 3
17 15 -2 9 0 23 6 31 8 12 9 10 4 -7 -4 -15 0 -25 12 -32 17 -10 17 -10 1 -11
-10 0 -18 -7 -18 -16 0 -11 5 -14 16 -10 14 5 15 4 4 -9 -10 -12 -10 -15 1
-16 10 0 11 -2 2 -6 -23 -9 -13 -25 12 -21 19 4 25 1 25 -13 0 -14 6 -17 30
-14 24 3 30 0 28 -12 -2 -9 3 -18 9 -20 10 -4 11 7 7 40 -6 43 -6 45 18 40 21
-4 27 0 32 22 5 20 12 26 28 23 12 -2 23 -9 24 -16 1 -7 0 -8 -3 -2 -6 12 -33
13 -33 1 0 -5 6 -11 13 -14 18 -6 -5 -41 -29 -44 -17 -3 -17 -2 1 6 20 10 20
10 0 10 -21 1 -45 -16 -45 -31 0 -4 7 -5 15 -2 8 4 15 2 15 -3 0 -6 10 -15 23
-21 l22 -11 -24 0 c-18 -1 -21 -4 -12 -14 8 -11 7 -18 -7 -31 -10 -9 -22 -13
-25 -9 -4 3 -7 1 -7 -5 0 -6 -10 -16 -21 -23 -15 -8 -19 -8 -15 0 9 14 0 14
-24 1 -16 -9 -18 -8 -13 6 4 12 14 14 34 10 22 -4 29 -2 29 10 0 9 9 18 20 21
11 3 17 10 14 15 -3 5 -12 7 -19 4 -7 -2 -21 4 -31 15 -18 20 -44 26 -44 10 0
-5 -3 -16 -6 -25 -4 -12 0 -16 15 -16 12 0 21 -4 21 -9 0 -5 -9 -7 -20 -4 -14
4 -20 0 -20 -13 0 -9 -3 -14 -7 -10 -4 3 -6 25 -4 47 1 29 -2 39 -10 34 -8 -5
-9 -1 -4 15 6 18 4 22 -8 17 -8 -3 -24 1 -36 10 -18 12 -25 12 -37 2 -9 -8
-18 -9 -22 -3 -10 13 -62 18 -62 5 0 -5 5 -13 10 -16 6 -3 10 -12 10 -18 0 -7
-10 0 -21 16 -11 15 -29 27 -40 27 -23 0 -24 6 -3 28 15 15 17 15 29 -1 7 -9
24 -17 39 -17 20 0 26 5 26 21 0 17 -5 20 -29 17 -18 -1 -37 5 -51 17 -20 18
-20 20 -3 26 10 4 24 1 32 -5 11 -8 15 -8 18 2 3 6 11 12 19 12 17 0 19 37 2
43 -7 2 8 4 35 4 34 0 47 -4 47 -14z"/>
</g>
</svg>
