<svg width="611" height="367" viewBox="0 0 611 367" fill="none" xmlns="http://www.w3.org/2000/svg">
<path d="M34.1001 358.2H35.5L39.2 366.7H37.6001L36.7 364.7H32.7L31.8 366.7H30.3L34.1001 358.2ZM36.2 363.4L34.7 360L33.3 363.4H36.2Z" fill="#333333"/>
<path d="M114.1 358.3H117.9C118.9 358.3 119.6 358.6 120.1 359C120.5 359.4 120.7 359.8 120.7 360.4C120.7 361.4 120.1 361.9 119.5 362.3C120.5 362.6 121.2 363.2 121.2 364.3C121.2 365.8 120 366.6 118.1 366.6H114.2L114.1 358.3ZM119.1 360.7C119.1 360 118.6 359.6 117.6 359.6H115.5V361.8H117.5C118.5 361.8 119.1 361.5 119.1 360.7ZM117.9 363.1H115.6V365.4H118C119 365.4 119.6 365 119.6 364.2C119.6 363.5 119 363.1 117.9 363.1Z" fill="#333333"/>
<path d="M196.2 362.5C196.2 360.1 198 358.1 200.5 358.1C202 358.1 203 358.6 203.8 359.4L202.9 360.5C202.2 359.9 201.5 359.5 200.5 359.5C198.9 359.5 197.7 360.8 197.7 362.5C197.7 364.1 198.9 365.5 200.5 365.5C201.5 365.5 202.2 365.1 202.9 364.4L203.8 365.4C202.9 366.3 202 366.9 200.4 366.9C198 366.8 196.2 364.9 196.2 362.5Z" fill="#333333"/>
<path d="M277.9 358.3H281C283.6 358.3 285.5 360.1 285.5 362.5C285.5 364.9 283.7 366.7 281 366.7H277.9V358.3ZM279.4 359.6V365.3H281.1C282.9 365.3 284 364.1 284 362.5C284 360.9 282.8 359.6 281.1 359.6H279.4Z" fill="#333333"/>
<path d="M361.2 358.3H367.4V359.6H362.6V361.8H366.8V363.1H362.6V365.4H367.4V366.7H361.1L361.2 358.3Z" fill="#333333"/>
<path d="M441.9 358.3H448.1V359.6H443.3V361.9H447.5V363.2H443.3V366.6H441.8V358.3H441.9Z" fill="#333333"/>
<path d="M521.3 362.5C521.3 360.1 523.1 358.1 525.6 358.1C527.1 358.1 528 358.5 528.8 359.2L527.9 360.3C527.3 359.7 526.6 359.4 525.5 359.4C524 359.4 522.8 360.8 522.8 362.4C522.8 364.1 523.9 365.4 525.7 365.4C526.5 365.4 527.2 365.1 527.7 364.8V363.2H525.6V362H529.2V365.5C528.4 366.2 527.2 366.8 525.7 366.8C523 366.8 521.3 365 521.3 362.5Z" fill="#333333"/>
<path d="M603.6 358.3H605.1V361.8H609.1V358.3H610.6V366.7H609.1V363.2H605.1V366.7H603.6V358.3Z" fill="#333333"/>
<path d="M607.8 5H35.4V349.2H607.8V5Z" fill="#F5F5F5"/>
<path d="M606.9 303.7H34.9V304.7H606.9V303.7Z" fill="#CED1D2"/>
<path d="M606.9 261H34.9V262H606.9V261Z" fill="#CED1D2"/>
<path d="M606.9 218.4H34.9V219.4H606.9V218.4Z" fill="#CED1D2"/>
<path d="M606.9 175.8H34.9V176.8H606.9V175.8Z" fill="#CED1D2"/>
<path d="M606.9 133.1H34.9V134.1H606.9V133.1Z" fill="#CED1D2"/>
<path d="M606.9 90.5H34.9V91.5H606.9V90.5Z" fill="#CED1D2"/>
<path d="M606.9 47.8H34.9V48.8H606.9V47.8Z" fill="#CED1D2"/>
<path d="M606.9 4.20001H34.9V5.20001H606.9V4.20001Z" fill="#CED1D2"/>
<path d="M606.9 348.7H34.9V349.7H606.9V348.7Z" fill="#CED1D2"/>
<path d="M607.9 4.39996H606.9V349.6H607.9V4.39996Z" fill="#CED1D2"/>
<path d="M526.2 5.09998H525.2V349.5H526.2V5.09998Z" fill="#CED1D2"/>
<path d="M444.4 5.09998H443.4V349.5H444.4V5.09998Z" fill="#CED1D2"/>
<path d="M362.7 5.09998H361.7V349.5H362.7V5.09998Z" fill="#CED1D2"/>
<path d="M281 5.09998H280V349.5H281V5.09998Z" fill="#CED1D2"/>
<path d="M199.3 5.09998H198.3V349.5H199.3V5.09998Z" fill="#CED1D2"/>
<path d="M117.6 5.09998H116.6V349.5H117.6V5.09998Z" fill="#CED1D2"/>
<path d="M35.9 5.09998H34.9V349.5H35.9V5.09998Z" fill="#CED1D2"/>
<path d="M3.89998 301.7L2.39998 302.1L2.09998 300.9L4.39998 300.2H5.39998V308.7H3.89998V301.7Z" fill="#333333"/>
<path d="M7.79993 304.5C7.79993 302.1 9.29992 300.1 11.4999 300.1C13.6999 300.1 15.0999 302 15.0999 304.4C15.0999 306.8 13.5999 308.7 11.3999 308.7C9.19993 308.8 7.79993 306.9 7.79993 304.5ZM13.5999 304.5C13.5999 302.8 12.6999 301.5 11.4999 301.5C10.2999 301.5 9.39993 302.8 9.39993 304.5C9.39993 306.2 10.1999 307.5 11.4999 307.5C12.7999 307.5 13.5999 306.2 13.5999 304.5Z" fill="#333333"/>
<path d="M17.1 304.5C17.1 302.1 18.6 300.1 20.8 300.1C23 300.1 24.4 302 24.4 304.4C24.4 306.8 22.9 308.7 20.7 308.7C18.5 308.8 17.1 306.9 17.1 304.5ZM22.9 304.5C22.9 302.8 22 301.5 20.8 301.5C19.6 301.5 18.7 302.8 18.7 304.5C18.7 306.2 19.5 307.5 20.8 307.5C22.1 307.5 22.9 306.2 22.9 304.5Z" fill="#333333"/>
<path d="M1.09998 264.5L3.99998 262C5.19998 261 5.59998 260.5 5.59998 259.7C5.59998 258.9 4.99997 258.4 4.19997 258.4C3.39997 258.4 2.89998 258.8 2.29998 259.7L1.19997 258.9C1.99997 257.8 2.79998 257.1 4.29998 257.1C5.89998 257.1 7.09998 258.1 7.09998 259.6C7.09998 260.9 6.39998 261.6 4.89998 262.8L3.19997 264.2H7.19997V265.5H1.09998C1.09998 265.7 1.09998 264.5 1.09998 264.5Z" fill="#333333"/>
<path d="M9.09998 261.5C9.09998 259.1 10.6 257.1 12.8 257.1C15 257.1 16.4 259 16.4 261.4C16.4 263.8 14.9 265.7 12.7 265.7C10.5 265.9 9.09998 263.9 9.09998 261.5ZM14.9 261.5C14.9 259.8 14 258.5 12.8 258.5C11.6 258.5 10.7 259.8 10.7 261.5C10.7 263.2 11.5 264.5 12.8 264.5C14.1 264.5 14.9 263.2 14.9 261.5Z" fill="#333333"/>
<path d="M18.4 261.5C18.4 259.1 19.9 257.1 22.1 257.1C24.3 257.1 25.7 259 25.7 261.4C25.7 263.8 24.2 265.7 22 265.7C19.8 265.9 18.4 263.9 18.4 261.5ZM24.2 261.5C24.2 259.8 23.3 258.5 22.1 258.5C20.9 258.5 20 259.8 20 261.5C20 263.2 20.8 264.5 22.1 264.5C23.4 264.5 24.2 263.2 24.2 261.5Z" fill="#333333"/>
<path d="M0.900024 221.4L1.90002 220.4C2.50002 221.1 3.20002 221.5 4.10002 221.5C4.90002 221.5 5.60002 221 5.60002 220.2C5.60002 219.4 4.80002 218.9 3.70002 218.9H3.00002L2.80003 218L5.10002 215.6H1.50002V214.3H7.10002V215.4L4.80003 217.8C6.10003 218 7.30003 218.6 7.30003 220.2C7.30003 221.7 6.10002 222.9 4.40002 222.9C2.70002 222.9 1.70002 222.3 0.900024 221.4Z" fill="#333333"/>
<path d="M9.09998 218.5C9.09998 216.1 10.6 214.1 12.8 214.1C15 214.1 16.4 216 16.4 218.4C16.4 220.8 14.9 222.7 12.7 222.7C10.6 222.9 9.09998 220.9 9.09998 218.5ZM14.9 218.5C14.9 216.8 14 215.5 12.8 215.5C11.6 215.5 10.7 216.8 10.7 218.5C10.7 220.2 11.5 221.5 12.8 221.5C14.1 221.5 14.9 220.2 14.9 218.5Z" fill="#333333"/>
<path d="M18.4 218.5C18.4 216.1 19.9 214.1 22.1 214.1C24.3 214.1 25.7 216 25.7 218.4C25.7 220.8 24.2 222.7 22 222.7C19.9 222.9 18.4 220.9 18.4 218.5ZM24.2 218.5C24.2 216.8 23.3 215.5 22.1 215.5C20.9 215.5 20 216.8 20 218.5C20 220.2 20.8 221.5 22.1 221.5C23.4 221.5 24.2 220.2 24.2 218.5Z" fill="#333333"/>
<path d="M5 177.9H0.800003L0.5 176.8L5.2 171.3H6.5V176.7H7.7V177.9H6.5V179.8H5V177.9ZM5 176.6V173.3L2.2 176.6H5Z" fill="#333333"/>
<path d="M9.5 175.6C9.5 173.2 11 171.2 13.2 171.2C15.4 171.2 16.8 173.1 16.8 175.5C16.8 177.9 15.3 179.8 13.1 179.8C11 179.9 9.5 178 9.5 175.6ZM15.3 175.6C15.3 173.9 14.4 172.6 13.2 172.6C12 172.6 11.1 173.9 11.1 175.6C11.1 177.3 11.9 178.6 13.2 178.6C14.5 178.5 15.3 177.2 15.3 175.6Z" fill="#333333"/>
<path d="M18.8 175.6C18.8 173.2 20.3 171.2 22.5 171.2C24.7 171.2 26.1 173.1 26.1 175.5C26.1 177.9 24.6 179.8 22.4 179.8C20.2 179.8 18.8 178 18.8 175.6ZM24.6 175.6C24.6 173.9 23.7 172.6 22.5 172.6C21.3 172.6 20.4 173.9 20.4 175.6C20.4 177.3 21.2 178.6 22.5 178.6C23.8 178.5 24.6 177.2 24.6 175.6Z" fill="#333333"/>
<path d="M1 135.6L1.9 134.5C2.6 135.1 3.3 135.5 4.1 135.5C5.1 135.5 5.8 134.9 5.8 134C5.8 133.1 5.1 132.6 4.1 132.6C3.5 132.6 3 132.8 2.6 133L1.7 132.4L1.9 128.3H6.9V129.6H3L2.9 131.6C3.3 131.5 3.7 131.4 4.2 131.4C5.8 131.4 7.1 132.3 7.1 134C7.1 135.7 5.8 136.8 4 136.8C2.8 136.9 1.8 136.4 1 135.6Z" fill="#333333"/>
<path d="M9.19995 132.6C9.19995 130.2 10.7 128.2 12.9 128.2C15.1 128.2 16.5 130.1 16.5 132.5C16.5 134.9 15 136.8 12.8 136.8C10.6 136.9 9.19995 135 9.19995 132.6ZM15 132.6C15 130.9 14.1 129.6 12.9 129.6C11.7 129.6 10.8 130.9 10.8 132.6C10.8 134.3 11.6 135.6 12.9 135.6C14.2 135.6 15 134.2 15 132.6Z" fill="#333333"/>
<path d="M18.5 132.6C18.5 130.2 20 128.2 22.2 128.2C24.4 128.2 25.8 130.1 25.8 132.5C25.8 134.9 24.3 136.8 22.1 136.8C19.9 136.8 18.5 135 18.5 132.6ZM24.2 132.6C24.2 130.9 23.3 129.6 22.1 129.6C20.9 129.6 20 130.9 20 132.6C20 134.3 20.8 135.6 22.1 135.6C23.4 135.6 24.2 134.2 24.2 132.6Z" fill="#333333"/>
<path d="M1.90002 93C1.30002 92.4 0.900024 91.5 0.900024 89.8C0.900024 87.2 2.10002 85.2 4.50002 85.2C5.60002 85.2 6.30002 85.5 7.10002 86.1L6.30003 87.2C5.70003 86.7 5.20002 86.5 4.50002 86.5C3.00002 86.5 2.50002 88 2.50002 89.2C3.00002 88.7 3.60002 88.3 4.50002 88.3C6.10002 88.3 7.40002 89.3 7.40002 90.9C7.40002 92.6 6.00003 93.8 4.30003 93.8C3.20003 93.9 2.50002 93.6 1.90002 93ZM5.90002 91.1C5.90002 90.2 5.20002 89.6 4.20002 89.6C3.20002 89.6 2.50002 90.3 2.50002 91.1C2.50002 92 3.20002 92.6 4.20002 92.6C5.20002 92.6 5.90002 92 5.90002 91.1Z" fill="#333333"/>
<path d="M9.40002 89.6C9.40002 87.2 10.9 85.2 13.1 85.2C15.3 85.2 16.7 87.1 16.7 89.5C16.7 91.9 15.2 93.8 13 93.8C10.8 93.9 9.40002 92 9.40002 89.6ZM15.2 89.6C15.2 87.9 14.3 86.6 13.1 86.6C11.9 86.6 11 87.9 11 89.6C11 91.3 11.8 92.6 13.1 92.6C14.3 92.6 15.2 91.2 15.2 89.6Z" fill="#333333"/>
<path d="M18.6 89.6C18.6 87.2 20.1 85.2 22.3 85.2C24.5 85.2 25.9 87.1 25.9 89.5C25.9 91.9 24.4 93.8 22.2 93.8C20.1 93.9 18.6 92 18.6 89.6ZM24.4 89.6C24.4 87.9 23.5 86.6 22.3 86.6C21.1 86.6 20.2 87.9 20.2 89.6C20.2 91.3 21 92.6 22.3 92.6C23.6 92.6 24.4 91.2 24.4 89.6Z" fill="#333333"/>
<path d="M5.60002 43.7H1.40002V42.4H7.30003V43.5L3.50002 50.8H1.80003L5.60002 43.7Z" fill="#333333"/>
<path d="M9 46.6C9 44.2 10.5 42.2 12.7 42.2C14.9 42.2 16.3 44.1 16.3 46.5C16.3 48.9 14.8 50.8 12.6 50.8C10.4 50.9 9 49 9 46.6ZM14.8 46.6C14.8 44.9 13.9 43.6 12.7 43.6C11.5 43.6 10.6 44.9 10.6 46.6C10.6 48.3 11.4 49.6 12.7 49.6C13.9 49.6 14.8 48.2 14.8 46.6Z" fill="#333333"/>
<path d="M18.2001 46.6C18.2001 44.2 19.7001 42.2 21.9001 42.2C24.1001 42.2 25.5001 44.1 25.5001 46.5C25.5001 48.9 24.0001 50.8 21.8001 50.8C19.7001 50.9 18.2001 49 18.2001 46.6ZM24.0001 46.6C24.0001 44.9 23.1001 43.6 21.9001 43.6C20.7001 43.6 19.8001 44.9 19.8001 46.6C19.8001 48.3 20.6001 49.6 21.9001 49.6C23.2001 49.6 24.0001 48.2 24.0001 46.6Z" fill="#333333"/>
<path d="M0.900024 7.09999C0.900024 6.09999 1.50002 5.39999 2.40002 4.99999C1.70002 4.59999 1.20002 4.09999 1.20002 3.09999C1.20002 1.79999 2.40002 0.799988 4.10002 0.799988C5.80002 0.799988 7.00002 1.79999 7.00002 3.09999C7.00002 3.99999 6.50003 4.59999 5.80003 4.99999C6.70003 5.39999 7.30003 5.99999 7.30003 6.99999C7.30003 8.49999 5.90002 9.39999 4.10002 9.39999C2.30002 9.39999 0.900024 8.59999 0.900024 7.09999ZM5.90002 6.99999C5.90002 6.19999 5.10002 5.69999 4.10002 5.69999C3.10002 5.69999 2.30003 6.19999 2.30003 6.99999C2.30003 7.69999 2.90002 8.29999 4.10002 8.29999C5.30002 8.29999 5.90002 7.69999 5.90002 6.99999ZM5.60002 3.29999C5.60002 2.59999 5.00002 2.09999 4.10002 2.09999C3.20002 2.09999 2.60002 2.59999 2.60002 3.29999C2.60002 3.99999 3.20002 4.49999 4.10002 4.49999C5.00002 4.59999 5.60002 4.09999 5.60002 3.29999Z" fill="#333333"/>
<path d="M9.20007 5.19999C9.20007 2.79999 10.7001 0.799988 12.9001 0.799988C15.1001 0.799988 16.5001 2.69999 16.5001 5.09999C16.5001 7.49999 15.0001 9.39999 12.8001 9.39999C10.6001 9.59999 9.20007 7.59999 9.20007 5.19999ZM15.0001 5.19999C15.0001 3.49999 14.1001 2.19999 12.9001 2.19999C11.7001 2.19999 10.8001 3.49999 10.8001 5.19999C10.8001 6.89999 11.6001 8.19999 12.9001 8.19999C14.2001 8.19999 15.0001 6.89999 15.0001 5.19999Z" fill="#333333"/>
<path d="M18.5 5.19999C18.5 2.79999 20 0.799988 22.2 0.799988C24.4 0.799988 25.8 2.69999 25.8 5.09999C25.8 7.49999 24.3 9.39999 22.1 9.39999C19.9 9.59999 18.5 7.59999 18.5 5.19999ZM24.3 5.19999C24.3 3.49999 23.4 2.19999 22.2 2.19999C21 2.19999 20.1 3.49999 20.1 5.19999C20.1 6.89999 20.9 8.19999 22.2 8.19999C23.5 8.19999 24.3 6.89999 24.3 5.19999Z" fill="#333333"/>
<path d="M35.9 327.5L34 324L114.6 278.4L196.7 162.2L197 162L278.7 99.1L361.2 115.7L443.3 88.9L523.9 99.9L606.1 58.9L607.8 62.5L524.5 104.1L443.7 93L361.5 119.8L279.7 103.4L199.6 165L117.4 281.5L117 281.7L35.9 327.5Z" fill="#318DDE"/>
<path d="M116.4 301.4L33.8 244.8L36.1001 241.5L115.6 296L196.6 199.1L278.8 77.1L361.3 157.7L443.2 66.3L524.1 119.8L605.8 59.1L608.1 62.3L524.3 124.7L443.8 71.6L361.4 163.4L279.5 83.3L199.8 201.6H199.7L116.4 301.4Z" fill="#1CD0BB"/>
<path d="M116.4 234.3L34 193.1L35.8 189.6L115.6 229.4L196.9 143.3L197.1 143.1L278.4 88.8L278.9 88.7L360.8 79L443 43L443.2 42.9L523.9 32.4L606.5 15.2L607.4 19.1L524.5 36.4L444.1 46.9L361.9 82.9L361.6 83L279.9 92.7L199.5 146.3L116.4 234.3Z" fill="#FFA400"/>
</svg>
