<?xml version="1.0" encoding="utf-8"?>
<!-- Generator: Adobe Illustrator 16.0.0, SVG Export Plug-In . SVG Version: 6.00 Build 0)  -->
<!DOCTYPE svg PUBLIC "-//W3C//DTD SVG 1.1//EN" "http://www.w3.org/Graphics/SVG/1.1/DTD/svg11.dtd">
<svg version="1.1" id="Layer_1" xmlns="http://www.w3.org/2000/svg" xmlns:xlink="http://www.w3.org/1999/xlink" x="0px" y="0px"
	 width="20px" height="20px" viewBox="0 0 20 20" enable-background="new 0 0 20 20" xml:space="preserve">
<g>
	<g>
		<path fill="#FFFFFF" d="M10,0C7.092,0,4.727,2.366,4.727,5.273S7.092,10.547,10,10.547c2.908,0,5.273-2.366,5.273-5.273
			S12.908,0,10,0z M10,9.375c-2.262,0-4.102-1.84-4.102-4.102S7.738,1.172,10,1.172s4.102,1.84,4.102,4.102S12.262,9.375,10,9.375z"
			/>
	</g>
</g>
<g>
	<g>
		<path fill="#FFFFFF" d="M11.635,11.758H8.366c-2.703,0-5.371,1.248-7.155,3.924V20h17.578v-4.318
			C17.008,13.01,14.341,11.758,11.635,11.758z M17.617,18.828L17.617,18.828H2.383v-2.787c1.369-1.951,3.592-3.111,5.983-3.111
			h3.269c2.391,0,4.613,1.16,5.982,3.111V18.828z"/>
	</g>
</g>
</svg>
