<?xml version="1.0" encoding="utf-8"?>
<!-- Generator: Adobe Illustrator 16.0.0, SVG Export Plug-In . SVG Version: 6.00 Build 0)  -->
<!DOCTYPE svg PUBLIC "-//W3C//DTD SVG 1.1//EN" "http://www.w3.org/Graphics/SVG/1.1/DTD/svg11.dtd">
<svg version="1.1" id="Layer_1" xmlns="http://www.w3.org/2000/svg" xmlns:xlink="http://www.w3.org/1999/xlink" x="0px" y="0px"
	 width="20px" height="20px" viewBox="0 0 20 20" enable-background="new 0 0 20 20" xml:space="preserve">
<path fill="#FFFFFF" d="M10,18.827c-0.282,0-0.555-0.102-0.767-0.288c-0.802-0.7-1.574-1.359-2.256-1.94l-0.003-0.003
	c-2-1.703-3.726-3.176-4.927-4.625c-1.343-1.62-1.968-3.156-1.968-4.834c0-1.631,0.559-3.135,1.574-4.236
	c1.027-1.114,2.437-1.728,3.97-1.728c1.145,0,2.194,0.363,3.117,1.077C9.206,2.61,9.628,3.051,10,3.565
	c0.372-0.515,0.795-0.956,1.261-1.316c0.923-0.714,1.972-1.077,3.118-1.077c1.531,0,2.942,0.614,3.97,1.728
	c1.015,1.102,1.573,2.605,1.573,4.236c0,1.678-0.626,3.214-1.968,4.834c-1.201,1.449-2.928,2.921-4.927,4.624
	c-0.683,0.583-1.458,1.242-2.26,1.945C10.555,18.726,10.282,18.827,10,18.827z M5.622,2.335c-1.205,0-2.311,0.48-3.115,1.354
	C1.69,4.574,1.24,5.799,1.24,7.137c0,1.411,0.525,2.674,1.701,4.093c1.137,1.372,2.828,2.813,4.786,4.481l0.003,0.003
	c0.685,0.583,1.46,1.245,2.268,1.95c0.811-0.707,1.588-1.37,2.275-1.953c1.958-1.669,3.648-3.109,4.786-4.481
	c1.176-1.419,1.699-2.682,1.699-4.093c0-1.338-0.449-2.563-1.265-3.448c-0.806-0.873-1.911-1.354-3.115-1.354
	c-0.883,0-1.692,0.28-2.407,0.833c-0.638,0.493-1.081,1.116-1.342,1.552C10.496,4.945,10.261,5.079,10,5.079
	c-0.261,0-0.497-0.133-0.63-0.358c-0.26-0.436-0.704-1.059-1.341-1.552C7.313,2.616,6.503,2.335,5.622,2.335z"/>
</svg>
