<?xml version="1.0" encoding="utf-8"?>
<!-- Generator: Adobe Illustrator 16.0.0, SVG Export Plug-In . SVG Version: 6.00 Build 0)  -->
<!DOCTYPE svg PUBLIC "-//W3C//DTD SVG 1.1//EN" "http://www.w3.org/Graphics/SVG/1.1/DTD/svg11.dtd">
<svg version="1.1" id="Layer_1" xmlns="http://www.w3.org/2000/svg" xmlns:xlink="http://www.w3.org/1999/xlink" x="0px" y="0px"
	 width="20px" height="20px" viewBox="0 0 20 20" enable-background="new 0 0 20 20" xml:space="preserve">
<g>
	<path fill="#FFFFFF" d="M19.414,15.689c-16.238,0-15.514,0.004-15.515-0.005C3.721,14.26,3.729,14.351,3.74,14.35
		c7.791-0.041-10.839,0.002,14.378,0.002c1.05,0,1.843-0.796,1.843-1.852V4.561c0-0.77-0.626-1.396-1.396-1.398l-4.851-0.008v-1.24
		c0-0.689-0.561-1.25-1.25-1.25h-1.171c-0.688,0-1.25,0.561-1.25,1.25v1.234L4.841,3.139l-0.39-2.148C4.347,0.417,3.848,0,3.264,0
		H0.586C0.262,0,0,0.262,0,0.586s0.262,0.586,0.586,0.586c2.836,0,2.704-0.016,2.712,0.028c0.636,3.501,0.231,1.054,1.937,11.97
		l-1.5,0.008c-0.704,0.002-1.252,0.62-1.165,1.324l0.166,1.328c0.074,0.588,0.576,1.031,1.169,1.031h1.04
		C4.211,18.288,5.251,20,6.862,20c1.61,0,2.651-1.711,1.917-3.139h5.581C13.625,18.288,14.665,20,16.275,20
		c1.611,0,2.652-1.711,1.918-3.139h1.221c0.324,0,0.586-0.262,0.586-0.586C20,15.953,19.738,15.689,19.414,15.689z M11.217,1.914
		c0-0.043,0.034-0.078,0.077-0.078h1.171c0.043,0,0.078,0.035,0.078,0.078V6.25c0,0.324,0.262,0.586,0.586,0.586h0.87l-1.826,1.827
		c-0.162,0.162-0.425,0.162-0.587,0L9.76,6.836h0.871c0.322,0,0.586-0.262,0.586-0.586V1.914L11.217,1.914z M10.044,4.32v1.344
		H9.066c-0.786,0-1.182,0.953-0.625,1.51l2.317,2.318c0.619,0.621,1.623,0.621,2.244,0l2.316-2.318
		c0.556-0.556,0.161-1.51-0.625-1.51h-0.979V4.326l4.849,0.008c0.124,0,0.226,0.102,0.226,0.226V12.5c0,0.406-0.27,0.68-0.671,0.68
		H6.422L5.037,4.311L10.044,4.32z M7.845,17.846c0,0.541-0.441,0.982-0.983,0.982s-0.983-0.441-0.983-0.982
		c0-0.543,0.441-0.984,0.983-0.984S7.845,17.303,7.845,17.846z M17.26,17.846c0,0.541-0.441,0.982-0.984,0.982
		c-0.541,0-0.982-0.441-0.982-0.982c0-0.543,0.441-0.984,0.982-0.984C16.818,16.861,17.26,17.303,17.26,17.846z"/>
</g>
</svg>
