<svg class="svg" xmlns="http://www.w3.org/2000/svg" viewBox="0 0 48 48"><path fill="#f8f9f9" d="M11 8h28v16H11z"></path><path fill="#bec6c6" d="M46 4v13c-3 0-2.75-.12-4.58.79-.56.28-.93.21-2.42.21v-7.78a3.59 3.59 0 0 1-2.24.78H36l-2.85 2.85a2.26 2.26 0 0 1-3.33-3L32.17 8H23l2.13-3.54A3 3 0 0 1 27.7 3h12.36a4.94 4.94 0 0 1 2.52.79c.56.28.74.21 3.42.21Z"></path><circle cx="25" cy="16" r="5" fill="#6457ff"></circle><path fill="#f8f9f9" d="M40 35.19a2.94 2.94 0 0 1-1.62 2.62l-13.11 6.56c-1.63.79-2.3.63-7.46.63-1.09 0-.6 0-11-2.79C5.73 41.93 5.15 42 2 42V29l5.85-.73a7.81 7.81 0 0 1 4.14.58l9.49 4.07a2.8 2.8 0 0 1 .84 4.59l13.75-5.06A2.92 2.92 0 0 1 40 35.19Z"></path><path fill="#414141" d="M39.32 32a3.92 3.92 0 0 0-3.6-.47l-11.57 4.24A3.82 3.82 0 0 0 21.88 32l-9.49-4.07a8.87 8.87 0 0 0-4.66-.65L1.88 28a1 1 0 0 0 .24 2L8 29.26a7 7 0 0 1 3.62.51l9.49 4.07a1.81 1.81 0 0 1 1 2.33 1.85 1.85 0 0 1-2.24 1l-6.49-2.16a1 1 0 1 0-.64 1.9l6.49 2.16a4 4 0 0 0 3.68-.73l13.57-5A1.92 1.92 0 0 1 39 35.19a1.94 1.94 0 0 1-1.07 1.73l-13.1 6.55c-1.4.68-2 .53-7 .53-.9 0-.33.09-10.78-2.75C5.81 40.91 5 41 2 41a1 1 0 0 0 0 2c3.26 0 3.66-.06 4.51.17C16.93 46 16.56 46 17.81 46c4.87 0 6 .2 7.91-.74l13.11-6.56a3.92 3.92 0 0 0 .49-6.7Z"></path><path fill="#bec6c6" d="M12 12V9h3a3 3 0 0 1-3 3zm0 8v3h3a3 3 0 0 0-3-3zm26 0v3h-3a3 3 0 0 1 3-3z"></path><circle cx="16" cy="16" r="1" fill="#bec6c6"></circle><circle cx="34" cy="16" r="1" fill="#bec6c6"></circle><path fill="#414141" d="M46 16c-2 0-3-.13-4.29.53-1.08.54-.82.47-1.71.47v-6.33a4.73 4.73 0 0 0 .89-1.22 1 1 0 0 0-1.78-.9A2.61 2.61 0 0 1 36.76 10c-.89 0-1.14 0-1.47.29l-2.85 2.85a1.25 1.25 0 0 1-1.45.24 1.26 1.26 0 0 1-.4-1.93l3.18-3.81a1 1 0 1 0-1.54-1.28L31.7 7h-6.93L26 5a2 2 0 0 1 1.7-1h12.36a4.2 4.2 0 0 1 2.07.68C43 5.12 43.68 5 46 5a1 1 0 0 0 0-2c-2.78 0-2.69 0-3-.11A5.92 5.92 0 0 0 40 2H27.7a4 4 0 0 0-3.43 1.94L22.43 7H11a1 1 0 0 0-1 1v16a1 1 0 0 0 1 1h28a1 1 0 0 0 1-1v-5a3.58 3.58 0 0 0 1.87-.32c1.59-.79 1.22-.68 4.13-.68a1 1 0 0 0 0-2Zm-8 7H12V9h18l-1 1.17a3.26 3.26 0 0 0 4.81 4.39l2.6-2.56a5.23 5.23 0 0 0 1.59-.17Z"></path></svg>