<svg class="svg" xmlns="http://www.w3.org/2000/svg" viewBox="0 0 48 48"><path fill="#c6c3d8" d="M47 15c0 21.5.21 20.69-.54 22A4 4 0 0 1 43 39H5a4 4 0 0 1-4-4V15Z"></path><path fill="#dad7e5" d="M47 15c0 21.5.21 20.69-.54 22H13a4 4 0 0 1-4-4V15Z"></path><path fill="#374f68" d="M47 13v2H1v-2a4 4 0 0 1 4-4h38a4 4 0 0 1 4 4Z"></path><path fill="#425b72" d="M47 13v2H9v-2a4 4 0 0 1 4-4h30a4 4 0 0 1 4 4Z"></path><path fill="#fc6" d="M43 30a5 5 0 0 1-8 4 5 5 0 0 0 0-8 5 5 0 0 1 8 4Z"></path><path fill="#ffde76" d="M38 25a4.94 4.94 0 0 0-3 1 4.34 4.34 0 0 1 .63.58 5 5 0 0 1 5.07 7.62A5 5 0 0 0 38 25Z"></path><circle cx="32" cy="30" r="5" fill="#db5669"></circle><path fill="#f26674" d="M35 26a5 5 0 0 0-7.2 1.3 5 5 0 0 1 6.91 6.88A5 5 0 0 0 35 26Z"></path><path fill="#919191" d="M13 21v2a2 2 0 0 1-2 2H9v-6h2a2 2 0 0 1 2 2Z"></path><path fill="#7c7d7d" d="M9 19v6H7a2 2 0 0 1-2-2v-2a2 2 0 0 1 2-2Z"></path><path fill="#425b72" d="M19 32H9v-2h10a1 1 0 0 1 0 2Z"></path><path fill="#374f68" d="M9 30v2H5a1 1 0 0 1 0-2Z"></path><path fill="#425b72" d="M13 36h-2.64a4 4 0 0 1-1.23-2H13a1 1 0 0 1 0 2Z"></path><path fill="#374f68" d="M10.36 36H5a1 1 0 0 1 0-2h4.13a4 4 0 0 0 1.23 2Z"></path></svg>