<?xml version="1.0" encoding="utf-8"?>
<!-- Generator: Adobe Illustrator 16.0.0, SVG Export Plug-In . SVG Version: 6.00 Build 0)  -->
<!DOCTYPE svg PUBLIC "-//W3C//DTD SVG 1.1//EN" "http://www.w3.org/Graphics/SVG/1.1/DTD/svg11.dtd">
<svg version="1.1" id="Layer_1" xmlns="http://www.w3.org/2000/svg" xmlns:xlink="http://www.w3.org/1999/xlink" x="0px" y="0px"
	 width="20px" height="20px" viewBox="0 0 20 20" enable-background="new 0 0 20 20" xml:space="preserve">
<path d="M11.832,10.017l7.788-7.788c0.507-0.506,0.507-1.326,0-1.832c-0.507-0.507-1.325-0.507-1.833,0L10,8.184L2.212,0.396
	c-0.507-0.507-1.326-0.507-1.833,0c-0.506,0.506-0.506,1.326,0,1.832l7.788,7.788L0.38,17.805c-0.506,0.506-0.506,1.325,0,1.832
	c0.252,0.252,0.584,0.379,0.917,0.379c0.332,0,0.663-0.127,0.916-0.379L10,11.849l7.787,7.788c0.254,0.252,0.585,0.379,0.916,0.379
	c0.332,0,0.664-0.127,0.917-0.379c0.507-0.507,0.507-1.326,0-1.832L11.832,10.017z"/>
</svg>
