<svg class="svg" width="312" height="205" viewBox="0 0 312 205" fill="none" xmlns="http://www.w3.org/2000/svg">
                                <path d="M281.5 0.14502H30.0801C13.5115 0.14502 0.0800781 13.5765 0.0800781 30.145V174.085C0.0800781 190.654 13.5115 204.085 30.0801 204.085H281.5C298.069 204.085 311.5 190.654 311.5 174.085V30.145C311.5 13.5765 298.069 0.14502 281.5 0.14502Z" fill="#66C1FF"></path>
                                <path d="M281.5 0.14502H251.5C255.44 0.144757 259.341 0.920552 262.981 2.4281C266.621 3.93565 269.928 6.14542 272.714 8.93123C275.5 11.717 277.709 15.0243 279.217 18.6642C280.724 22.3041 281.5 26.2053 281.5 30.145V174.085C281.5 178.025 280.724 181.926 279.217 185.566C277.709 189.206 275.5 192.513 272.714 195.299C269.928 198.085 266.621 200.294 262.981 201.802C259.341 203.309 255.44 204.085 251.5 204.085H281.5C285.44 204.085 289.341 203.309 292.981 201.802C296.621 200.294 299.928 198.085 302.714 195.299C305.5 192.513 307.709 189.206 309.217 185.566C310.724 181.926 311.5 178.025 311.5 174.085V30.145C311.5 26.2053 310.724 22.3041 309.217 18.6642C307.709 15.0243 305.5 11.717 302.714 8.93123C299.928 6.14542 296.621 3.93565 292.981 2.4281C289.341 0.920552 285.44 0.144757 281.5 0.14502V0.14502Z" fill="#4EB7FF"></path>
                                <path d="M281.063 26.578H220.975C218.766 26.578 216.975 28.3689 216.975 30.578V50.203C216.975 52.4121 218.766 54.203 220.975 54.203H281.063C283.272 54.203 285.063 52.4121 285.063 50.203V30.578C285.063 28.3689 283.272 26.578 281.063 26.578Z" fill="white"></path>
                                <path d="M281.063 26.578H266.063C267.124 26.578 268.141 26.9994 268.891 27.7496C269.642 28.4997 270.063 29.5171 270.063 30.578V50.202C270.063 51.2629 269.642 52.2803 268.891 53.0304C268.141 53.7806 267.124 54.202 266.063 54.202H281.063C282.124 54.202 283.141 53.7806 283.891 53.0304C284.642 52.2803 285.063 51.2629 285.063 50.202V30.578C285.063 29.5171 284.642 28.4997 283.891 27.7496C283.141 26.9994 282.124 26.578 281.063 26.578Z" fill="#EEEEEE"></path>
                                <path d="M82.9461 26.578H30.5171C28.308 26.578 26.5171 28.3689 26.5171 30.578V66.605C26.5171 68.8142 28.308 70.605 30.5171 70.605H82.9461C85.1552 70.605 86.9461 68.8142 86.9461 66.605V30.578C86.9461 28.3689 85.1552 26.578 82.9461 26.578Z" fill="#FFE966"></path>
                                <path d="M82.946 26.578H67.946C69.0069 26.578 70.0243 26.9994 70.7744 27.7496C71.5246 28.4997 71.946 29.5171 71.946 30.578V66.604C71.946 67.6649 71.5246 68.6823 70.7744 69.4324C70.0243 70.1826 69.0069 70.604 67.946 70.604H82.946C84.0069 70.604 85.0243 70.1826 85.7744 69.4324C86.5246 68.6823 86.946 67.6649 86.946 66.604V30.578C86.946 29.5171 86.5246 28.4997 85.7744 27.7496C85.0243 26.9994 84.0069 26.578 82.946 26.578Z" fill="#FFE236"></path>
                                <path d="M222.563 174.085C232.228 174.085 240.063 166.25 240.063 156.585C240.063 146.92 232.228 139.085 222.563 139.085C212.898 139.085 205.063 146.92 205.063 156.585C205.063 166.25 212.898 174.085 222.563 174.085Z" fill="#FFE966"></path>
                                <path d="M252.563 174.085C262.228 174.085 270.063 166.25 270.063 156.585C270.063 146.92 262.228 139.085 252.563 139.085C242.898 139.085 235.063 146.92 235.063 156.585C235.063 166.25 242.898 174.085 252.563 174.085Z" fill="#FFC166"></path>
                                <path d="M252.563 139.085C250.426 139.088 248.307 139.485 246.313 140.255C249.622 141.517 252.469 143.754 254.478 146.67C256.487 149.586 257.563 153.044 257.563 156.585C257.563 160.126 256.487 163.584 254.478 166.5C252.469 169.416 249.622 171.653 246.313 172.915C248.71 173.834 251.281 174.213 253.841 174.027C256.402 173.841 258.89 173.093 261.129 171.837C263.368 170.582 265.304 168.848 266.798 166.761C268.292 164.673 269.308 162.282 269.775 159.757C270.241 157.233 270.146 154.636 269.497 152.152C268.847 149.669 267.659 147.358 266.016 145.385C264.373 143.412 262.316 141.825 259.991 140.736C257.666 139.647 255.13 139.084 252.563 139.085V139.085Z" fill="#FFB74E"></path>
                                <path d="M146.946 181.585H26.5171C24.528 181.585 22.6203 180.795 21.2138 179.388C19.8073 177.982 19.0171 176.074 19.0171 174.085C19.0171 172.096 19.8073 170.188 21.2138 168.782C22.6203 167.375 24.528 166.585 26.5171 166.585H146.946C148.935 166.585 150.843 167.375 152.249 168.782C153.656 170.188 154.446 172.096 154.446 174.085C154.446 176.074 153.656 177.982 152.249 179.388C150.843 180.795 148.935 181.585 146.946 181.585V181.585ZM86.9461 151.585H26.5171C25.5322 151.585 24.5569 151.391 23.647 151.014C22.737 150.637 21.9102 150.085 21.2138 149.388C20.5174 148.692 19.9649 147.865 19.588 146.955C19.2111 146.045 19.0171 145.07 19.0171 144.085C19.0171 143.1 19.2111 142.125 19.588 141.215C19.9649 140.305 20.5174 139.478 21.2138 138.782C21.9102 138.085 22.737 137.533 23.647 137.156C24.5569 136.779 25.5322 136.585 26.5171 136.585H86.9461C87.931 136.585 88.9063 136.779 89.8162 137.156C90.7262 137.533 91.553 138.085 92.2494 138.782C92.9458 139.478 93.4983 140.305 93.8752 141.215C94.2521 142.125 94.4461 143.1 94.4461 144.085C94.4461 145.07 94.2521 146.045 93.8752 146.955C93.4983 147.865 92.9458 148.692 92.2494 149.388C91.553 150.085 90.7262 150.637 89.8162 151.014C88.9063 151.391 87.931 151.585 86.9461 151.585ZM56.9461 110.166H26.5171C24.528 110.166 22.6203 109.376 21.2138 107.969C19.8073 106.563 19.0171 104.655 19.0171 102.666C19.0171 100.677 19.8073 98.7692 21.2138 97.3627C22.6203 95.9562 24.528 95.166 26.5171 95.166H56.9461C58.9352 95.166 60.8429 95.9562 62.2494 97.3627C63.6559 98.7692 64.4461 100.677 64.4461 102.666C64.4461 104.655 63.6559 106.563 62.2494 107.969C60.8429 109.376 58.9352 110.166 56.9461 110.166ZM132.985 110.166H102.556C100.567 110.166 98.6593 109.376 97.2528 107.969C95.8463 106.563 95.0561 104.655 95.0561 102.666C95.0561 100.677 95.8463 98.7692 97.2528 97.3627C98.6593 95.9562 100.567 95.166 102.556 95.166H132.985C134.974 95.166 136.882 95.9562 138.288 97.3627C139.695 98.7692 140.485 100.677 140.485 102.666C140.485 104.655 139.695 106.563 138.288 107.969C136.882 109.376 134.974 110.166 132.985 110.166ZM209.024 110.166H178.595C176.606 110.166 174.698 109.376 173.292 107.969C171.885 106.563 171.095 104.655 171.095 102.666C171.095 100.677 171.885 98.7692 173.292 97.3627C174.698 95.9562 176.606 95.166 178.595 95.166H209.024C211.013 95.166 212.921 95.9562 214.327 97.3627C215.734 98.7692 216.524 100.677 216.524 102.666C216.524 104.655 215.734 106.563 214.327 107.969C212.921 109.376 211.013 110.166 209.024 110.166ZM285.063 110.166H254.634C252.645 110.166 250.737 109.376 249.331 107.969C247.924 106.563 247.134 104.655 247.134 102.666C247.134 100.677 247.924 98.7692 249.331 97.3627C250.737 95.9562 252.645 95.166 254.634 95.166H285.063C287.052 95.166 288.96 95.9562 290.366 97.3627C291.773 98.7692 292.563 100.677 292.563 102.666C292.563 104.655 291.773 106.563 290.366 107.969C288.96 109.376 287.052 110.166 285.063 110.166Z" fill="#B3E0FF"></path>
                            </svg>