<?xml version="1.0" encoding="utf-8"?>
<!-- Generator: Adobe Illustrator 16.0.0, SVG Export Plug-In . SVG Version: 6.00 Build 0)  -->
<!DOCTYPE svg PUBLIC "-//W3C//DTD SVG 1.1//EN" "http://www.w3.org/Graphics/SVG/1.1/DTD/svg11.dtd">
<svg version="1.1" id="Layer_1" xmlns="http://www.w3.org/2000/svg" xmlns:xlink="http://www.w3.org/1999/xlink" x="0px" y="0px"
	 width="20px" height="20px" viewBox="0 0 20 20" enable-background="new 0 0 20 20" xml:space="preserve">
<path fill="#FFFFFF" d="M0.801,0.063c-0.441,0.16-0.664,0.73-0.449,1.148c0.043,0.082,1.547,2.223,3.344,4.754
	c1.797,2.527,3.316,4.691,3.383,4.801c0.063,0.113,0.133,0.262,0.16,0.336c0.031,0.094,0.051,1.199,0.066,4.191
	c0.023,4.492,0.004,4.199,0.273,4.461C7.758,19.93,8,20.016,8.234,19.988c0.266-0.035,4.012-1.477,4.18-1.609
	c0.074-0.059,0.168-0.18,0.207-0.27c0.07-0.152,0.074-0.316,0.074-3.363c0-3.5,0.004-3.531,0.227-3.941
	c0.063-0.113,1.59-2.289,3.395-4.832s3.313-4.684,3.348-4.758c0.039-0.07,0.078-0.219,0.09-0.332
	c0.027-0.281-0.133-0.582-0.398-0.746L19.168,0.02l-9.105-0.008C2.172,0.008,0.938,0.012,0.801,0.063z M18.305,1.414
	c-0.879,1.23-6.051,8.527-6.141,8.672c-0.164,0.258-0.281,0.508-0.375,0.82c-0.086,0.281-0.086,0.32-0.109,3.508l-0.02,3.223
	L10,18.27l-1.66,0.629l-0.02-3.891c-0.023-4.281-0.008-4.004-0.27-4.559c-0.148-0.32,0.137,0.09-3.461-4.98
	C2.891,3.074,1.484,1.09,1.469,1.063c-0.023-0.035,1.699-0.047,8.547-0.047h8.578L18.305,1.414z"/>
</svg>
