<?xml version="1.0" encoding="utf-8"?>
<!-- Generator: Adobe Illustrator 16.0.0, SVG Export Plug-In . SVG Version: 6.00 Build 0)  -->
<!DOCTYPE svg PUBLIC "-//W3C//DTD SVG 1.1//EN" "http://www.w3.org/Graphics/SVG/1.1/DTD/svg11.dtd">
<svg version="1.1" id="Layer_1" xmlns="http://www.w3.org/2000/svg" xmlns:xlink="http://www.w3.org/1999/xlink" x="0px" y="0px"
	 width="28.932px" height="28.932px" viewBox="0 0 28.932 28.932" enable-background="new 0 0 28.932 28.932" xml:space="preserve">
<g>
	<path d="M28.344,25.518l-6.114-6.115c1.485-2.066,2.303-4.536,2.303-7.137c0-3.274-1.275-6.354-3.594-8.672
		C18.625,1.278,15.543,0,12.266,0S5.909,1.275,3.593,3.594C1.277,5.909,0.001,8.99,0.001,12.266c0,3.276,1.275,6.356,3.592,8.674
		c2.316,2.316,5.396,3.595,8.674,3.595c2.599,0,5.066-0.813,7.136-2.304l6.114,6.115c0.392,0.391,0.901,0.586,1.414,0.586
		s1.023-0.195,1.414-0.586C29.125,27.564,29.125,26.299,28.344,25.518z M6.422,18.111c-1.562-1.562-2.421-3.639-2.421-5.846
		S4.86,7.983,6.422,6.421c1.562-1.563,3.637-2.422,5.845-2.422s4.283,0.859,5.845,2.422c1.562,1.562,2.422,3.638,2.422,5.845
		s-0.859,4.283-2.422,5.846s-3.636,2.421-5.845,2.421S7.981,19.672,6.422,18.111z"/>
</g>
</svg>
