<svg enable-background="new 0 0 512 512" viewBox="0 0 512 512" xmlns="http://www.w3.org/2000/svg"><g><g><path d="m412.65 107.667h-80.65v148.333l180-21.056v-.108z" fill="#cce6ff"></path><path d="m332 234.944h180v158.722h-180z" fill="#cc295f"></path></g><g><path d="m356.333 65h-170.065l-15.601 159 15.601 169.667h170.065z" fill="#fdae02"></path><path d="m0 393.667h186.268v-148.334l-186.267 20.334z" fill="#fdcb02"></path><path d="m0 65 .001 96 186.267 20.333v-116.333z" fill="#fdcb02"></path><path d="m235.314 265.667 29.905-104.667h-78.951l-15.601 52.333 15.601 52.334z" fill="#cc295f"></path><path d="m.001 161h186.267v104.666h-186.267z" fill="#ff4d4d"></path></g><g><circle cx="122.667" cy="384" fill="#f9f9f9" r="48"></circle><path d="m122.667 447c-34.738 0-63-28.262-63-63s28.262-63 63-63 63 28.262 63 63-28.262 63-63 63zm0-96c-18.196 0-33 14.804-33 33s14.804 33 33 33 33-14.804 33-33-14.804-33-33-33z" fill="#29376d"></path></g><g><circle cx="389.333" cy="384" fill="#eaf1ff" r="48"></circle><path d="m389.333 447c-34.738 0-63-28.262-63-63s28.262-63 63-63 63 28.262 63 63-28.261 63-63 63zm0-96c-18.196 0-33 14.804-33 33s14.804 33 33 33 33-14.804 33-33-14.803-33-33-33z" fill="#23305b"></path></g></g></svg>