<svg viewBox="0 0 512 512" xmlns="http://www.w3.org/2000/svg"><path d="m410 0c8.285156 0 15 6.714844 15 15v199.027344c52.363281 26.195312 87 79.976562 87 140.722656 0 86.84375-70.40625 157.25-157.25 157.25-60.746094 0-114.527344-34.636719-140.722656-87h-199.027344c-8.285156 0-15-6.714844-15-15v-395c0-8.285156 6.714844-15 15-15zm-126 30v84.0625c0 10.785156-11.507812 19.085938-22.746094 12.84375l-48.753906-24.773438-49.761719 25.289063c-9.988281 5.058594-21.710937-2.324219-21.703125-13.359375l-.035156-84.0625h-111v365h172.703125c-14.519531-54.976562 1.808594-112.394531 40.855469-151.441406s96.464844-55.375 151.441406-40.855469v-172.703125zm23 391h69.996094c15.984375 0 30.488281-6.511719 40.988281-17.015625 11.039063-11.035156 17.015625-25.332031 17.015625-41.980469 0-31.96875-26.035156-58.003906-58.003906-58.003906h-41.683594l8.804688-8.820312c13.871093-13.953126-7.339844-35.042969-21.210938-21.09375l-34.402344 34.464843c-5.824218 5.855469-5.800781 15.328125.058594 21.152344l34.46875 34.402344c13.949219 13.871093 35.042969-7.339844 21.09375-21.210938l-8.914062-8.894531h41.785156c16.242187 0 28.003906 12.984375 28.003906 28.996094 0 15.40625-12.597656 28.003906-28.003906 28.003906h-69.996094c-8.285156 0-15 6.714844-15 15s6.714844 15 15 15zm-42.230469-156.230469c-49.691406 49.695313-49.691406 130.269531 0 179.960938 49.695313 49.695312 130.269531 49.695312 179.960938 0 49.695312-49.691407 49.695312-130.265625 0-179.960938-49.691407-49.691406-130.269531-49.691406-179.960938 0zm-10.769531-234.769531h-83v59.65625l34.726562-17.648438c4.097657-2.078124 9.09375-2.246093 13.511719-.019531l34.761719 17.667969zm0 0" fill-rule="evenodd"></path></svg>