<svg width="512" height="512" viewBox="0 0 512 512" fill="none" xmlns="http://www.w3.org/2000/svg">
<path d="M256 483.516C248.711 483.516 241.684 480.875 236.207 476.078C215.523 457.992 195.582 440.996 177.988 426.004L177.898 425.926C126.316 381.969 81.7734 344.008 50.7812 306.613C16.1367 264.809 0 225.172 0 181.871C0 139.801 14.4258 100.988 40.6172 72.5781C67.1211 43.832 103.488 28 143.031 28C172.586 28 199.652 37.3438 223.477 55.7695C235.5 65.0703 246.398 76.4531 256 89.7305C265.605 76.4531 276.5 65.0703 288.527 55.7695C312.352 37.3438 339.418 28 368.973 28C408.512 28 444.883 43.832 471.387 72.5781C497.578 100.988 512 139.801 512 181.871C512 225.172 495.867 264.809 461.223 306.609C430.23 344.008 385.691 381.965 334.117 425.918C316.492 440.934 296.52 457.957 275.789 476.086C270.316 480.875 263.285 483.516 256 483.516ZM143.031 57.9922C111.965 57.9922 83.4258 70.3906 62.6641 92.9062C41.5938 115.762 29.9883 147.355 29.9883 181.871C29.9883 218.289 43.5234 250.859 73.8711 287.477C103.203 322.871 146.832 360.051 197.348 403.102L197.441 403.18C215.102 418.23 235.121 435.293 255.957 453.512C276.918 435.258 296.969 418.168 314.664 403.094C365.176 360.043 408.801 322.871 438.133 287.477C468.477 250.859 482.012 218.289 482.012 181.871C482.012 147.355 470.406 115.762 449.336 92.9062C428.578 70.3906 400.035 57.9922 368.973 57.9922C346.215 57.9922 325.32 65.2266 306.871 79.4922C290.43 92.2109 278.977 108.289 272.262 119.539C268.809 125.324 262.73 128.777 256 128.777C249.27 128.777 243.191 125.324 239.738 119.539C233.027 108.289 221.574 92.2109 205.129 79.4922C186.68 65.2266 165.785 57.9922 143.031 57.9922Z" fill="white"/>
</svg>
